<svg width="24" height="24" viewBox="0 0 24 24" fill="none" xmlns="http://www.w3.org/2000/svg">
<rect width="24" height="24" fill="white"/>
<path fill-rule="evenodd" clip-rule="evenodd" d="M5.001 5C5.00066 5 5.00033 5 4.99999 5C4.43282 5 3.97303 5.45159 3.97303 6.00865L3.97303 10.0998L3.02887 10.0998C2.16776 10.0998 1.689 11.0781 2.22702 11.7386L4.19806 13.6301C4.60925 14.1348 5.39076 14.1348 5.80195 13.6301L7.77303 11.7386C8.31096 11.0781 7.83223 10.0998 6.97114 10.0998H6.02695L6.02695 7L18 7C18.5523 7 19 6.55229 19 6C19 5.44772 18.5523 5 18 5L5.001 5ZM19 19.0087C18.9542 19.0087 18.9091 19.0057 18.8649 19L6 19C5.44772 19 5 18.5523 5 18C5 17.4477 5.44772 17 6 17L17.9731 17V13.9088H17.0289C16.1678 13.9088 15.689 12.9305 16.227 12.2701L18.198 10.3785C18.6092 9.87382 19.3908 9.87382 19.8019 10.3785L21.773 12.2701C22.311 12.9305 21.8322 13.9088 20.9711 13.9088H20.027V18C20.027 18.5571 19.5672 19.0087 19 19.0087Z" fill="#C4C4C4"/>
</svg>
