<svg width="20" height="16" viewBox="0 0 20 16" fill="none" xmlns="http://www.w3.org/2000/svg">
<path fill-rule="evenodd" clip-rule="evenodd" d="M0 2C0 0.895435 0.901053 0 2.01255 0H11.069C12.1805 0 13.0816 0.895448 13.0816 2V4C13.0816 4.55228 12.631 5 12.0753 5C11.5195 5 11.069 4.55228 11.069 4V2H2.01255L2.01258 14L11.069 14V12C11.069 11.4477 11.5195 11 12.0753 11C12.631 11 13.0816 11.4477 13.0816 12V14C13.0816 15.1046 12.1805 16 11.069 16H2.01258C0.90108 16 3.02292e-05 15.1046 3.02292e-05 14L0 2Z" fill="#D4D4D4"/>
<path fill-rule="evenodd" clip-rule="evenodd" d="M6.03764 8C6.03764 7.44772 6.48817 7 7.04392 7H16.1004C16.1004 7.5 16.1004 7.44772 16.1004 8C16.1004 8.55228 16.1004 8 16.1004 9H7.04392C6.48817 9 6.03764 8.55228 6.03764 8Z" fill="#D4D4D4"/>
<path d="M16.1004 9.91938C16.1004 9.91938 16.1004 8.74957 16.1004 8C16.1004 7.25042 16.1004 6.08058 16.1004 6.08058C16.1004 5.2421 17.0764 4.77593 17.7353 5.29974L19.6223 7.21908C20.1259 7.61948 20.1259 8.38048 19.6223 8.78088L17.7353 10.7002C17.0764 11.2241 16.1004 10.7579 16.1004 9.91938Z" fill="#D4D4D4"/>
</svg>
