<svg width="75" height="60" viewBox="0 0 75 60" fill="none" xmlns="http://www.w3.org/2000/svg">
<path d="M0 45.2552H6.00672C9.31266 45.2552 11.3523 47.1135 11.3411 50.0758C11.3523 52.084 10.4165 53.5096 8.79716 54.2419L11.8734 59.7948H8.07994L5.37916 54.7911H3.45162V59.7948H0V45.2496V45.2552ZM5.2783 52.0673C6.91446 52.0784 7.77176 51.446 7.77176 50.0758C7.77176 48.7056 6.90885 48.0289 5.2783 48.0289H3.45162V52.0673H5.2783V52.0673Z" fill="#50C520"/>
<path d="M12.641 54.3972C12.641 51.0133 14.7703 48.75 18.0818 48.75C21.1748 48.75 23.3993 50.6971 23.3993 54.314V55.1794H16.0142V55.2404C16.0254 56.6383 16.8771 57.5481 18.2667 57.5481C19.2025 57.5481 19.9029 57.1487 20.1718 56.5052H23.3601C22.9455 58.6354 21.0572 60 18.2051 60C14.7535 60 12.6466 57.8698 12.6466 54.3972H12.641ZM20.2111 53.1934C20.1886 52.0285 19.337 51.2019 18.1603 51.2019C16.9836 51.2019 16.059 52.0673 16.0086 53.1934H20.2111V53.1934Z" fill="#50C520"/>
<path d="M28.9354 55.2015H24.8674V52.5887H28.9354V55.2015Z" fill="#50C520"/>
<path d="M30.8461 45.2552H34.2529V50.7581H34.3313C34.746 49.7763 35.6929 48.75 37.458 48.75C39.7833 48.75 41.8622 50.5252 41.8622 54.3528C41.8622 58.1805 39.8842 59.9556 37.4412 59.9556C35.7546 59.9556 34.7852 59.0237 34.3369 58.0252H34.2361V59.7948H30.8461V45.2496V45.2552ZM36.2813 57.3095C37.6093 57.3095 38.3489 56.1335 38.3489 54.3362C38.3489 52.5388 37.6093 51.4016 36.2813 51.4016C34.9533 51.4016 34.1801 52.5277 34.1913 54.3362C34.1801 56.1446 34.9533 57.3095 36.2813 57.3095Z" fill="#50C520"/>
<path d="M43.2406 54.375C43.2406 51.0078 45.3418 48.75 48.7822 48.75C52.2226 48.75 54.3239 51.0078 54.3239 54.375C54.3239 57.7422 52.2338 60 48.7822 60C45.3306 60 43.2406 57.7422 43.2406 54.375ZM48.799 57.4482C50.1102 57.4371 50.8386 56.1834 50.8274 54.3528C50.8386 52.5333 50.1046 51.2685 48.799 51.2574C47.4486 51.2685 46.7202 52.5333 46.7314 54.3528C46.7202 56.1834 47.4542 57.4371 48.799 57.4482Z" fill="#50C520"/>
<path d="M56.0889 48.8942H59.4173V50.8635H59.5181C59.9215 49.4379 60.8965 48.7444 62.118 48.7333C62.4318 48.7444 62.8072 48.7944 63.093 48.8554V51.8066C62.768 51.7067 62.1517 51.6346 61.7314 51.6457C60.4539 51.6346 59.5069 52.5222 59.5181 53.8369V59.8058H56.0889V48.8998V48.8942Z" fill="#50C520"/>
<path d="M67.895 59.8003H64.4658V48.8942H67.7101V50.8857H67.8334C68.3321 49.571 69.5592 48.7556 71.1786 48.7556C73.5039 48.7556 75.0056 50.3809 74.9944 52.855V59.8058H71.5876V53.4985C71.5876 52.2726 70.9152 51.5403 69.7833 51.5292C68.6459 51.5403 67.895 52.2948 67.895 53.5595V59.8058V59.8003Z" fill="#50C520"/>
<path d="M68.9821 9.73002L61.1431 14.2123V25.4734L68.9821 29.9556C70.0467 30.5658 71.2234 30.6157 72.2432 30.2663C72.3945 30.2163 72.5402 30.1553 72.6802 30.0832L72.697 30.0721C72.7307 30.0555 72.7587 30.0388 72.7867 30.0277L72.8035 30.0166C72.8035 30.0166 72.8595 29.9889 72.8876 29.9723L72.9156 29.9556C72.9828 29.9168 73.0444 29.878 73.1117 29.8391L73.1285 29.828C73.2293 29.7615 73.3246 29.6893 73.4199 29.6172H73.4311C73.4311 29.6172 73.4759 29.5728 73.4983 29.5562C73.5095 29.5507 73.5151 29.5396 73.5263 29.534C73.5431 29.5174 73.5599 29.5007 73.5768 29.4896C73.588 29.4785 73.6048 29.4674 73.616 29.4508C73.6384 29.4342 73.6608 29.412 73.6776 29.3898C73.6888 29.3787 73.6944 29.3731 73.7056 29.362C73.7224 29.3454 73.7393 29.3288 73.7561 29.3121C73.7673 29.301 73.7841 29.2844 73.7953 29.2733C73.8065 29.2622 73.8233 29.2456 73.8345 29.2345C73.8513 29.2178 73.8681 29.2012 73.8793 29.1845C73.8961 29.1679 73.9073 29.1513 73.9242 29.1346C73.9354 29.118 73.9522 29.1069 73.9634 29.0902C73.9746 29.0736 73.9914 29.0569 74.0026 29.0459C74.0138 29.0292 74.0306 29.0126 74.0418 28.9959C74.053 28.9793 74.0698 28.9626 74.0811 28.946C74.0923 28.9294 74.1035 28.9127 74.1147 28.9016C74.1315 28.8794 74.1427 28.8628 74.1595 28.8406C74.1707 28.8295 74.1763 28.8129 74.1875 28.8018C74.2043 28.7796 74.2155 28.7629 74.2323 28.7407C74.2435 28.7241 74.2491 28.713 74.2604 28.6964C74.2772 28.6742 74.2884 28.652 74.3052 28.6298C74.3108 28.6187 74.322 28.6021 74.3276 28.591C74.3444 28.5632 74.3612 28.5355 74.378 28.5078L74.3948 28.48C74.3948 28.48 74.4228 28.4301 74.4341 28.4024C74.4397 28.3913 74.4453 28.3802 74.4509 28.3691C74.4621 28.3413 74.4789 28.3191 74.4901 28.2914C74.4957 28.2803 74.5013 28.2692 74.5069 28.2526C74.5181 28.2304 74.5237 28.2137 74.5349 28.1916C74.5461 28.1749 74.5517 28.1527 74.5629 28.1361C74.5685 28.1194 74.5797 28.1028 74.5853 28.0862C74.5966 28.064 74.6022 28.0418 74.6134 28.0196C74.619 28.003 74.6246 27.9808 74.6358 27.9641C74.6414 27.9419 74.6526 27.9197 74.6582 27.8976C74.6638 27.8754 74.675 27.8532 74.6806 27.831C74.6862 27.8143 74.6918 27.7977 74.6974 27.7755C74.703 27.7478 74.7142 27.7256 74.7198 27.6978C74.7198 27.6812 74.731 27.6646 74.7366 27.6479C74.7422 27.6257 74.7478 27.6035 74.7534 27.5814C74.7534 27.5592 74.7647 27.5425 74.7703 27.5203C74.7703 27.4981 74.7815 27.476 74.7871 27.4593C74.7871 27.4371 74.7983 27.4149 74.8039 27.3927C74.8039 27.365 74.8151 27.3428 74.8207 27.3151C74.8207 27.2984 74.8263 27.2818 74.8319 27.2596C74.8319 27.2319 74.8375 27.2097 74.8431 27.1819C74.8431 27.1653 74.8487 27.1431 74.8543 27.1265C74.8543 27.0987 74.8599 27.0765 74.8655 27.0488C74.8655 27.0322 74.8655 27.01 74.8711 26.9933C74.8711 26.9656 74.8711 26.9434 74.8767 26.9157C74.8767 26.8935 74.8767 26.8768 74.8767 26.8547C74.8767 26.8269 74.8767 26.7936 74.8767 26.7659C74.8767 26.7493 74.8767 26.7326 74.8767 26.7215C74.8767 26.6938 74.8767 26.666 74.8767 26.6383C74.8767 26.6217 74.8767 26.5995 74.8767 26.5828V13.1084C74.8767 10.1072 71.5932 8.2267 68.9653 9.73002H68.9821Z" fill="#50C520"/>
<path d="M6.01794 29.9556L13.8569 25.4734V14.2123L6.01794 9.73001C4.95331 9.11981 3.77662 9.06988 2.75682 9.41936C2.60554 9.46929 2.46545 9.53031 2.31977 9.60242L2.29735 9.61352C2.29735 9.61352 2.25253 9.63571 2.23012 9.6468C2.21331 9.65235 2.2021 9.66344 2.18529 9.66899C2.11245 9.70782 2.0396 9.74665 1.97236 9.79103C1.97236 9.79103 1.91633 9.82986 1.88831 9.84651L1.8659 9.86315C1.8659 9.86315 1.81547 9.89643 1.78746 9.91862L1.76504 9.93526C1.70901 9.97409 1.64737 10.0185 1.59694 10.0629C1.58574 10.0684 1.58013 10.0795 1.56893 10.085C1.55212 10.1017 1.5297 10.1183 1.51289 10.1294C1.50169 10.1405 1.48488 10.1516 1.47367 10.1627C1.46246 10.1738 1.44565 10.1849 1.43445 10.196C1.41764 10.2126 1.40083 10.2293 1.38402 10.2404C1.37281 10.2515 1.356 10.2626 1.3448 10.2737C1.32799 10.2903 1.31118 10.3069 1.29437 10.3236C1.28316 10.3347 1.26635 10.3513 1.25514 10.3624C1.23833 10.3791 1.22152 10.3957 1.20471 10.4123L1.19351 10.4234C1.19351 10.4234 1.14308 10.4734 1.12066 10.5011C1.10946 10.5122 1.09825 10.5233 1.08704 10.5344C1.07023 10.5566 1.05342 10.5732 1.03661 10.5954C1.03101 10.6065 1.0198 10.612 1.0142 10.6231C0.997392 10.6453 0.974979 10.6675 0.958169 10.6897C0.946962 10.7008 0.941359 10.7119 0.930152 10.7285C0.913343 10.7507 0.896533 10.7674 0.879723 10.7896C0.868516 10.8062 0.85731 10.8173 0.846103 10.8339C0.829293 10.8506 0.818087 10.8728 0.801277 10.8894C0.79007 10.906 0.778864 10.9227 0.767657 10.9338C0.756451 10.9504 0.739641 10.9726 0.728434 10.9893C0.717227 11.0059 0.706021 11.0225 0.700418 11.0392C0.689211 11.0558 0.678004 11.078 0.661195 11.0947C0.649988 11.1168 0.638782 11.1335 0.627575 11.1557C0.616368 11.1723 0.610765 11.189 0.599559 11.2056C0.588352 11.2278 0.577145 11.2444 0.565939 11.2666C0.554732 11.2833 0.549129 11.2999 0.537922 11.3165C0.526716 11.3332 0.521112 11.3554 0.509906 11.372C0.498699 11.3887 0.493096 11.4109 0.481889 11.4275C0.476286 11.4441 0.470683 11.4552 0.459476 11.4719C0.44827 11.4941 0.437063 11.5218 0.425857 11.544C0.425857 11.5551 0.41465 11.5717 0.409047 11.5828C0.39784 11.6106 0.386634 11.6383 0.375427 11.666C0.375427 11.6771 0.369824 11.6882 0.36422 11.6993C0.353014 11.7271 0.341807 11.7548 0.330601 11.7881C0.330601 11.8047 0.319394 11.8214 0.313791 11.8325C0.302584 11.8602 0.296981 11.8824 0.285774 11.9101C0.280171 11.9323 0.274568 11.9489 0.268965 11.9711C0.263361 11.9933 0.257758 12.0155 0.252155 12.0377C0.252155 12.0543 0.240948 12.071 0.240948 12.0932C0.235345 12.1154 0.229742 12.1431 0.224138 12.1653C0.224138 12.1764 0.218535 12.193 0.212932 12.2041C0.207328 12.2319 0.201725 12.2651 0.190519 12.2929C0.190519 12.3095 0.184915 12.3317 0.179312 12.3484C0.179312 12.3705 0.168105 12.3983 0.162502 12.4205C0.162502 12.4427 0.156899 12.4593 0.151296 12.4815C0.151296 12.5037 0.145692 12.5259 0.140089 12.5536C0.140089 12.5758 0.140089 12.5924 0.134486 12.6146C0.134486 12.6368 0.128882 12.6646 0.123279 12.6867C0.123279 12.7089 0.123279 12.7256 0.123279 12.7478C0.123279 12.7755 0.123279 12.7977 0.117676 12.8254C0.117676 12.8476 0.117676 12.8698 0.117676 12.8975C0.117676 12.9197 0.117676 12.9419 0.117676 12.9641C0.117676 12.9863 0.117676 13.0085 0.117676 13.0307C0.117676 13.0529 0.117676 13.0806 0.117676 13.1028V26.5717C0.117676 29.5728 3.4012 31.4534 6.02914 29.9501L6.01794 29.9556Z" fill="#50C520"/>
<path d="M0.112049 12.8976C0.112049 12.8976 0.112049 12.8532 0.112049 12.8255C0.112049 12.7977 0.112049 12.7755 0.117652 12.7478C0.117652 12.7256 0.117652 12.709 0.117652 12.6868C0.117652 12.659 0.123255 12.6368 0.128858 12.6147C0.128858 12.5925 0.128858 12.5758 0.134462 12.5536C0.134462 12.5314 0.140065 12.5037 0.145668 12.4815C0.145668 12.4593 0.151272 12.4427 0.156875 12.4205C0.156875 12.3983 0.168081 12.3706 0.173685 12.3484C0.173685 12.3317 0.179288 12.3095 0.184891 12.2929C0.190495 12.2652 0.196098 12.2319 0.207304 12.2041C0.207304 12.1931 0.212908 12.1764 0.218511 12.1653C0.224114 12.1431 0.229718 12.1154 0.235321 12.0932C0.235321 12.0766 0.246527 12.0599 0.246527 12.0377C0.252131 12.0155 0.257734 11.9934 0.263337 11.9712C0.268941 11.949 0.274544 11.9323 0.280147 11.9101C0.285751 11.8824 0.296957 11.8602 0.308164 11.8325C0.308164 11.8158 0.31937 11.7992 0.324974 11.7881C0.33618 11.7604 0.347387 11.7271 0.358593 11.6993C0.358593 11.6882 0.364197 11.6772 0.3698 11.6661C0.381006 11.6383 0.392213 11.6106 0.40342 11.5828C0.40342 11.5718 0.414626 11.5551 0.420229 11.544C0.431436 11.5218 0.442643 11.4941 0.453849 11.4719C0.459452 11.4553 0.465056 11.4442 0.476262 11.4275C0.487469 11.4109 0.493072 11.3887 0.504279 11.372C0.515485 11.3554 0.521089 11.3332 0.532295 11.3166C0.543502 11.2999 0.549105 11.2833 0.560312 11.2666C0.571518 11.2445 0.582725 11.2278 0.593931 11.2056C0.605138 11.189 0.610741 11.1723 0.621948 11.1557C0.633154 11.1335 0.644361 11.1169 0.655567 11.0947C0.666774 11.0725 0.677981 11.0559 0.69479 11.0392C0.705997 11.0226 0.717204 11.0059 0.722807 10.9893C0.734013 10.9726 0.750823 10.9505 0.76203 10.9338C0.773237 10.9172 0.784443 10.9005 0.79565 10.8894C0.806856 10.8672 0.823666 10.8506 0.840476 10.834C0.851682 10.8173 0.862889 10.8062 0.874096 10.7896C0.890905 10.7674 0.907715 10.7452 0.924525 10.7286C0.935732 10.7175 0.941335 10.7064 0.952542 10.6897C0.969352 10.6675 0.991765 10.6453 1.00857 10.6232C1.01418 10.6121 1.02538 10.6065 1.03099 10.5954C1.0478 10.5732 1.06461 10.5566 1.08142 10.5344C1.09262 10.5233 1.10383 10.5122 1.11504 10.5011C1.13745 10.4734 1.16547 10.4512 1.18788 10.4235L1.19909 10.4124C1.19909 10.4124 1.23271 10.3791 1.24952 10.3624C1.26072 10.3513 1.27753 10.3347 1.28874 10.3236C1.30555 10.307 1.32236 10.2903 1.33917 10.2737C1.35038 10.2626 1.36158 10.2515 1.37839 10.2404C1.3952 10.2237 1.41201 10.2071 1.42882 10.196C1.44003 10.1849 1.45684 10.1738 1.46804 10.1627C1.47925 10.1516 1.49606 10.1405 1.50727 10.1294C1.52408 10.1128 1.54649 10.0962 1.5633 10.0851C1.57451 10.0795 1.58011 10.0684 1.59132 10.0629C1.64735 10.0185 1.70338 9.97412 1.75942 9.93529L1.78183 9.91865C1.78183 9.91865 1.83226 9.87982 1.86027 9.86317L1.88269 9.84653C1.88269 9.84653 1.93872 9.81325 1.96674 9.79661C2.03398 9.75223 2.10682 9.7134 2.17966 9.67456C2.19647 9.66902 2.20768 9.65792 2.22449 9.65237C2.2469 9.64128 2.26931 9.63019 2.29173 9.61909C2.37578 9.57471 2.46543 9.54143 2.55508 9.5026L2.7512 9.42493C3.771 9.0699 4.94769 9.12538 6.01231 9.73558L13.8513 14.2178L23.7019 19.8484L37.4916 11.9656L17.8352 0.721162L17.8016 0.70452C16.1318 -0.244075 14.0698 -0.227433 12.4001 0.726709L2.82964 6.20193C1.15986 7.15607 0.112049 8.90903 0.106445 10.8173V13.1028C0.106445 13.1028 0.106445 13.0529 0.106445 13.0307C0.106445 13.0085 0.106445 12.9863 0.106445 12.9641C0.106445 12.9419 0.106445 12.9198 0.106445 12.8976H0.112049Z" fill="#B5DC00"/>
<path d="M74.8879 26.7604C74.8879 26.7936 74.8879 26.8214 74.8879 26.8491C74.8879 26.8713 74.8879 26.8879 74.8879 26.9101C74.8879 26.9379 74.8879 26.9601 74.8823 26.9878C74.8823 27.0044 74.8823 27.0266 74.8767 27.0433C74.8767 27.071 74.8711 27.0932 74.8655 27.1209C74.8655 27.1376 74.8599 27.1598 74.8543 27.1764C74.8543 27.2041 74.8487 27.2263 74.8431 27.2541C74.8431 27.2707 74.8375 27.2874 74.8319 27.3095C74.8319 27.3373 74.8207 27.3595 74.8151 27.3872C74.8151 27.4094 74.8039 27.4316 74.7983 27.4538C74.7983 27.476 74.7871 27.4982 74.7815 27.5148C74.7815 27.537 74.7703 27.5536 74.7647 27.5758C74.759 27.598 74.7534 27.6202 74.7478 27.6424C74.7478 27.659 74.7366 27.6757 74.731 27.6923C74.7254 27.72 74.7142 27.7422 74.7086 27.77C74.703 27.7866 74.6974 27.8033 74.6918 27.8254C74.6862 27.8476 74.675 27.8698 74.6694 27.892C74.6638 27.9142 74.6526 27.9364 74.647 27.9586C74.6414 27.9752 74.6358 27.9974 74.6246 28.0141C74.6134 28.0362 74.6078 28.0584 74.5966 28.0806C74.591 28.0973 74.5797 28.1139 74.5741 28.1306C74.5685 28.1472 74.5573 28.1694 74.5461 28.186C74.5349 28.2082 74.5293 28.2249 74.5181 28.247C74.5125 28.2581 74.5069 28.2748 74.5013 28.2859C74.4901 28.3136 74.4789 28.3358 74.4621 28.3635C74.4565 28.3746 74.4509 28.3857 74.4453 28.3968C74.4341 28.4246 74.4172 28.4468 74.406 28.4745L74.3892 28.5022C74.3892 28.5022 74.3556 28.5577 74.3388 28.5854C74.3332 28.5965 74.322 28.6132 74.3164 28.6243C74.2996 28.6465 74.2884 28.6686 74.2716 28.6908C74.2604 28.7075 74.2548 28.7186 74.2435 28.7352C74.2323 28.7574 74.2155 28.7796 74.1987 28.7962C74.1875 28.8073 74.1819 28.824 74.1707 28.8351C74.1539 28.8573 74.1427 28.8739 74.1259 28.8961C74.1147 28.9127 74.1035 28.9294 74.0923 28.9405C74.0811 28.9571 74.0642 28.9737 74.053 28.9904C74.0418 29.007 74.025 29.0237 74.0138 29.0403C74.0026 29.057 73.9858 29.0736 73.9746 29.0847C73.9634 29.1013 73.9466 29.1124 73.9354 29.1291C73.9186 29.1457 73.9073 29.1624 73.8905 29.179C73.8737 29.1956 73.8569 29.2123 73.8457 29.2289C73.8345 29.24 73.8233 29.2567 73.8065 29.2678C73.7953 29.2788 73.7785 29.2955 73.7673 29.3066C73.7505 29.3232 73.7336 29.3399 73.7168 29.3565C73.7056 29.3676 73.7 29.3732 73.6888 29.3843C73.6664 29.4064 73.6496 29.4231 73.6272 29.4453C73.616 29.4564 73.5992 29.4675 73.588 29.4841C73.5712 29.5007 73.5543 29.5174 73.5375 29.5285C73.5263 29.534 73.5207 29.5451 73.5095 29.5507C73.4871 29.5673 73.4647 29.5895 73.4423 29.6061H73.4311C73.3358 29.6894 73.2406 29.7559 73.1397 29.8225L73.1229 29.8336C73.0613 29.8724 72.994 29.9168 72.9268 29.9501L72.8988 29.9667C72.8988 29.9667 72.8427 29.9945 72.8147 30.0111L72.7979 30.0222C72.7699 30.0388 72.7363 30.0555 72.7082 30.0666L72.6914 30.0777C72.5514 30.1442 72.4001 30.2108 72.2544 30.2607C71.2346 30.6158 70.0579 30.5603 68.9933 29.9501L61.1543 25.4678L51.3037 19.8373L37.514 27.72L57.1759 38.959L57.2096 38.9756C58.8793 39.9242 60.9413 39.9076 62.6111 38.9534L72.1871 33.4782C73.8569 32.524 74.9047 30.7655 74.9103 28.8573V26.5718C74.9103 26.5718 74.9103 26.6106 74.9103 26.6272C74.9103 26.655 74.9103 26.6827 74.9103 26.7104C74.9103 26.7271 74.9103 26.7437 74.9103 26.7548L74.8879 26.7604Z" fill="#B5DC00"/>
<path d="M37.4972 11.9601L51.2869 19.8428L61.1375 14.2123L68.9765 9.73004C71.6044 8.22671 74.8879 10.1073 74.8879 13.1084V10.8229C74.8879 8.91458 73.8345 7.15607 72.1647 6.20193L62.5943 0.726709C60.9245 -0.227433 58.8625 -0.244075 57.1927 0.70452L57.1591 0.721162L37.4972 11.9601V11.9601Z" fill="#DDED22"/>
<path d="M13.8569 25.4734L6.01791 29.9556C3.38997 31.459 0.106445 29.5784 0.106445 26.5773V28.8628C0.106445 30.7711 1.15986 32.5296 2.82964 33.4837L12.4057 38.959C14.0754 39.9131 16.1374 39.9297 17.8072 38.9811L17.8408 38.9645L37.5028 27.7256L23.7131 19.8428L13.8625 25.4734H13.8569Z" fill="#DDED22"/>
<path d="M37.4972 11.9601L23.7075 19.8429L37.4972 27.7256L51.2869 19.8429L37.4972 11.9601Z" fill="#DDED22"/>
</svg>
